<svg xmlns="http://www.w3.org/2000/svg" viewBox="0 0 1366 618.52"><defs><style>.cls-1{fill:#cffeff;}</style></defs><g id="Layer_2" data-name="Layer 2"><g id="Layer_1-2" data-name="Layer 1"><path class="cls-1" d="M1366,0V600.23a175.89,175.89,0,0,0-61.6,14.42,44,44,0,0,1-35.28.22,177.51,177.51,0,0,0-142.24,0,43.26,43.26,0,0,1-34.76,0,177.51,177.51,0,0,0-142.24,0,43.26,43.26,0,0,1-34.76,0,177.51,177.51,0,0,0-142.24,0,43.26,43.26,0,0,1-34.76,0,177.51,177.51,0,0,0-142.24,0,43.26,43.26,0,0,1-34.76,0,177.51,177.51,0,0,0-142.24,0,43.26,43.26,0,0,1-34.76,0,177.51,177.51,0,0,0-142.24,0,43.26,43.26,0,0,1-34.76,0,177.48,177.48,0,0,0-142.25,0,43.63,43.63,0,0,1-35-.12A175.19,175.19,0,0,0,0,604.77V0Z"/></g></g></svg>